PathFileType	4	(X/Y/Z)	Kaydara																																																																																																																									
DataRate	CameraRate	NumFrames	NumMarkers	Units	OrigDataRate	OrigDataStartFrame	OrigNumFrames																																																																																																																					
30	30	4	41	mm	30	80	148																																																																																																																					
Frame#	Time	SALE_LFHD			SALE_RFHD			SALE_LBHD			SALE_RBHD			SALE_LFTShould			SALE_RFTShould			SALE_LRRShould			SALE_RRRShould			SALE_T10			SALE_STRN			SALE_TRUN			SALE_LSHO			SALE_LUPA			SALE_LELB			SALE_LFRM			SALE_LWRA			SALE_LWRB			SALE_LFIN			SALE_RSHO			SALE_RUPA			SALE_RELB			SALE_RFRM			SALE_RWRB			SALE_RFIN			SALE_LFWT			SALE_RFWT			SALE_LBWT			SALE_RBWT			SALE_LTHI			SALE_LKNE			SALE_RWRA			SALE_LSHN			SALE_LANK			SALE_LHEE			SALE_LTOE			SALE_RTHI			SALE_RKNE			SALE_RSHN			SALE_RANK			SALE_RHEE			SALE_RTOE		
		X1	Y1	Z1	X2	Y2	Z2	X3	Y3	Z3	X4	Y4	Z4	X5	Y5	Z5	X6	Y6	Z6	X7	Y7	Z7	X8	Y8	Z8	X9	Y9	Z9	X10	Y10	Z10	X11	Y11	Z11	X12	Y12	Z12	X13	Y13	Z13	X14	Y14	Z14	X15	Y15	Z15	X16	Y16	Z16	X17	Y17	Z17	X18	Y18	Z18	X19	Y19	Z19	X20	Y20	Z20	X21	Y21	Z21	X22	Y22	Z22	X23	Y23	Z23	X24	Y24	Z24	X25	Y25	Z25	X26	Y26	Z26	X27	Y27	Z27	X28	Y28	Z28	X29	Y29	Z29	X30	Y30	Z30	X31	Y31	Z31	X32	Y32	Z32	X33	Y33	Z33	X34	Y34	Z34	X35	Y35	Z35	X36	Y36	Z36	X37	Y37	Z37	X38	Y38	Z38	X39	Y39	Z39	X40	Y40	Z40	X41	Y41	Z41
																																																																																																																												
56	2.633	216.90619	1636.45721	-1335.11856	82.96649	1638.13599	-1334.84894	211.88406	1595.18814	-1463.64212	84.40909	1596.24069	-1456.73401	216.76376	1360.45639	-1352.16919	78.82715	1362.87476	-1342.79816	207.82185	1432.36099	-1458.0806	57.92895	1441.36963	-1439.69482	120.31833	1294.72183	-1538.22861	143.0552	1282.52243	-1311.09161	138.79488	1191.70624	-1281.95679	327.78923	1390.4425	-1422.25235	364.32358	1176.89476	-1464.56589	344.11434	1069.9437	-1499.16107	374.26205	963.02559	-1492.36603	320.01675	814.18762	-1441.87714	379.58141	815.16167	-1491.86203	381.9529	764.23721	-1451.0582	-30.33783	1404.03748	-1392.13928	-79.98375	1189.49005	-1483.58337	-113.11433	1085.75905	-1455.98709	-111.41855	973.58475	-1482.14279	-135.63789	831.20949	-1453.73535	-153.99783	788.71429	-1404.77798	253.66396	971.44119	-1383.19443	-22.24913	940.34676	-1389.11362	195.24258	1029.76303	-1552.10678	16.62988	1011.50887	-1556.22604	259.76366	661.31584	-1501.19019	223.55055	507.85789	-1397.19284	-98.69118	836.55251	-1389.93179	208.99584	302.0558	-1397.94022	203.79202	118.60288	-1449.28207	169.48296	69.99975	-1519.16931	159.16088	80.2804	-1322.7594	-6.55495	676.31523	-1515.92697	5.60313	528.18775	-1381.62918	55.38506	357.80617	-1503.61511	5.14835	263.85292	-1744.0004	57.13748	290.21685	-1823.00583	16.35579	119.98734	-1740.62943
57	2.667	217.64912	1636.91635	-1295.59052	83.74017	1639.28818	-1296.84982	213.81826	1598.8031	-1424.97894	86.34871	1600.32928	-1419.6286	216.60652	1362.30621	-1318.54355	78.88737	1364.99252	-1310.18829	208.73907	1434.44016	-1424.05762	58.58926	1443.64685	-1407.75269	122.01876	1297.15134	-1505.57571	142.67962	1284.92264	-1277.5518	138.32956	1193.33366	-1250.88837	328.32073	1392.74063	-1387.15073	368.08426	1177.68661	-1415.47073	352.00447	1067.74727	-1443.14667	382.6199	962.26898	-1427.32758	326.09566	816.41861	-1371.24893	389.53644	814.91562	-1416.44669	388.85826	766.52252	-1372.64328	-29.96406	1406.62933	-1360.55298	-77.55081	1192.62337	-1454.24438	-111.78688	1088.81149	-1427.80533	-109.6941	976.539	-1453.97415	-135.16566	834.32953	-1427.0636	-154.36706	792.01439	-1378.86978	255.14889	971.73325	-1350.89645	-20.80035	945.49042	-1356.02188	195.92852	1031.52283	-1519.86359	17.40178	1015.51704	-1523.57788	257.38468	663.1852	-1481.50635	223.78622	505.52563	-1382.74658	-98.86786	839.08897	-1362.81967	209.13811	300.20523	-1390.49026	203.64058	118.62277	-1448.42697	169.15482	69.92377	-1519.27155	159.5921	80.13441	-1322.68723	-10.97957	679.19167	-1461.39145	7.23656	544.06651	-1307.04361	57.0569	364.76826	-1416.05438	5.36826	256.90975	-1651.29807	57.26776	272.72957	-1735.73593	11.64892	120.2573	-1626.51016
58	2.7	217.92419	1636.82236	-1255.91187	84.39841	1639.8938	-1258.32603	215.01854	1602.75467	-1386.36658	87.56689	1604.89487	-1382.09	216.0347	1365.33447	-1285.07294	78.07373	1367.97363	-1277.91611	208.50454	1436.03241	-1390.61737	59.04352	1445.36774	-1375.73318	123.24342	1298.6171	-1472.51801	141.74532	1288.22449	-1245.05943	137.45326	1196.86844	-1217.36923	327.84206	1396.09467	-1352.86484	370.62828	1180.82214	-1369.13589	357.25998	1068.89137	-1389.20441	389.02382	965.17578	-1363.78098	332.54013	823.32649	-1298.0722	397.62974	819.34372	-1340.327	395.6498	774.44839	-1293.15781	-30.34642	1409.57153	-1329.45526	-75.92582	1196.62338	-1425.36499	-110.91673	1092.37625	-1399.75357	-108.39756	980.06187	-1425.99304	-134.73501	838.08121	-1399.98199	-153.45385	794.81094	-1352.21359	257.12841	970.3978	-1319.55597	-19.51069	950.02655	-1321.24435	195.81499	1032.04933	-1486.75964	17.85536	1018.63892	-1490.2713	253.37006	664.78928	-1462.90955	224.00005	502.87811	-1369.15939	-98.11797	842.05322	-1335.86533	208.61591	298.24356	-1383.15033	203.24242	118.74741	-1447.37335	168.57269	70.26525	-1518.99155	159.9597	79.93435	-1322.41074	-16.63512	683.93562	-1408.02521	9.76775	564.01222	-1238.53226	59.0169	373.15514	-1328.63312	4.93839	238.7871	-1550.31158	56.56533	240.03309	-1639.55658	9.13229	113.97211	-1501.4035
59	2.733	217.85242	1634.9382	-1216.42899	84.57751	1638.96698	-1219.23485	215.16289	1605.14008	-1347.96387	87.69851	1608.09647	-1343.93845	214.9159	1367.2139	-1250.83031	76.75097	1369.60281	-1245.33409	208.13583	1436.2175	-1357.05948	59.11213	1445.32227	-1343.92288	124.78591	1298.08914	-1438.88092	140.1677	1290.47913	-1211.10214	136.05275	1199.37119	-1182.72354	326.8758	1398.41537	-1317.66998	372.47372	1183.78838	-1324.32114	361.03786	1070.5619	-1338.05634	394.01012	968.95561	-1303.00964	338.54504	833.27667	-1224.07433	403.58768	825.51262	-1265.95222	402.79202	786.00143	-1214.66072	-30.95215	1410.79025	-1298.51303	-74.21651	1198.8871	-1395.79865	-110.27048	1094.21623	-1371.34247	-107.47334	981.79947	-1397.35504	-134.64159	840.0045	-1371.71722	-152.11165	795.39246	-1324.36874	258.51593	967.02133	-1287.78427	-17.86666	953.28194	-1287.18582	195.25709	1030.34134	-1453.17719	17.62894	1019.95857	-1455.85083	247.98929	665.793	-1443.33405	223.80123	499.36615	-1356.74866	-97.68248	843.43674	-1307.35001	208.04792	296.3081	-1376.33453	202.49229	118.87098	-1446.12961	167.85088	71.22321	-1518.7175	159.80672	79.56688	-1321.9252	-22.10066	689.10759	-1356.28723	11.72036	582.64801	-1177.92671	60.23108	380.32097	-1243.18466	4.15904	212.0215	-1442.314	55.46223	195.71306	-1532.30133	8.7845	103.99709	-1369.49646
